<svg xmlns="http://www.w3.org/2000/svg" xmlns:xlink="http://www.w3.org/1999/xlink" width="2000" zoomAndPan="magnify" viewBox="0 0 1500 1499.999933" height="2000" preserveAspectRatio="xMidYMid meet" version="1.0"><defs><clipPath id="d097aa70d5"><path d="M 119 94 L 744 94 L 744 1122 L 119 1122 Z M 119 94 " clip-rule="nonzero"/></clipPath><clipPath id="dd0f3eee6e"><path d="M 162.210938 91.15625 L 1083.59375 247.175781 L 921.4375 1204.792969 L 0.0546875 1048.773438 Z M 162.210938 91.15625 " clip-rule="nonzero"/></clipPath><clipPath id="52dfa363a0"><path d="M 162.210938 91.15625 L 1083.59375 247.175781 L 901.78125 1320.890625 L -19.605469 1164.871094 Z M 162.210938 91.15625 " clip-rule="nonzero"/></clipPath><clipPath id="300c80ef76"><path d="M 139 599 L 589 599 L 589 1041 L 139 1041 Z M 139 599 " clip-rule="nonzero"/></clipPath><clipPath id="2f59038905"><path d="M 162.210938 91.15625 L 1083.59375 247.175781 L 921.4375 1204.792969 L 0.0546875 1048.773438 Z M 162.210938 91.15625 " clip-rule="nonzero"/></clipPath><clipPath id="4c42fa77f8"><path d="M 162.210938 91.15625 L 1083.59375 247.175781 L 901.78125 1320.890625 L -19.605469 1164.871094 Z M 162.210938 91.15625 " clip-rule="nonzero"/></clipPath><clipPath id="13c970b8ff"><path d="M 339 447 L 1007 447 L 1007 1205 L 339 1205 Z M 339 447 " clip-rule="nonzero"/></clipPath><clipPath id="32fc7b57d8"><path d="M 162.210938 91.15625 L 1083.59375 247.175781 L 921.4375 1204.792969 L 0.0546875 1048.773438 Z M 162.210938 91.15625 " clip-rule="nonzero"/></clipPath><clipPath id="2b7f85950d"><path d="M 162.210938 91.15625 L 1083.59375 247.175781 L 901.78125 1320.890625 L -19.605469 1164.871094 Z M 162.210938 91.15625 " clip-rule="nonzero"/></clipPath><clipPath id="d2ddcf93ad"><path d="M 598 1036 L 845 1036 L 845 1370 L 598 1370 Z M 598 1036 " clip-rule="nonzero"/></clipPath><clipPath id="61e0175d77"><path d="M 773.234375 1036.046875 L 953.523438 1247.984375 L 739.871094 1429.734375 L 559.582031 1217.796875 Z M 773.234375 1036.046875 " clip-rule="nonzero"/></clipPath><clipPath id="2173ab12c6"><path d="M 776.695312 970.921875 L 987.605469 1218.851562 L 739.675781 1429.757812 L 528.769531 1181.828125 Z M 776.695312 970.921875 " clip-rule="nonzero"/></clipPath><clipPath id="8f41d31797"><path d="M 596.457031 1144.71875 L 645.605469 1144.71875 L 645.605469 1207.886719 L 596.457031 1207.886719 Z M 596.457031 1144.71875 " clip-rule="nonzero"/></clipPath><clipPath id="9db100b055"><path d="M 621.03125 1144.71875 C 607.457031 1144.71875 596.457031 1158.851562 596.457031 1176.289062 C 596.457031 1193.722656 607.457031 1207.859375 621.03125 1207.859375 C 634.601562 1207.859375 645.605469 1193.722656 645.605469 1176.289062 C 645.605469 1158.851562 634.601562 1144.71875 621.03125 1144.71875 Z M 621.03125 1144.71875 " clip-rule="nonzero"/></clipPath><clipPath id="813f4d33bb"><path d="M 0.457031 0.71875 L 49.605469 0.71875 L 49.605469 63.886719 L 0.457031 63.886719 Z M 0.457031 0.71875 " clip-rule="nonzero"/></clipPath><clipPath id="136e23c027"><path d="M 25.03125 0.71875 C 11.457031 0.71875 0.457031 14.851562 0.457031 32.289062 C 0.457031 49.722656 11.457031 63.859375 25.03125 63.859375 C 38.601562 63.859375 49.605469 49.722656 49.605469 32.289062 C 49.605469 14.851562 38.601562 0.71875 25.03125 0.71875 Z M 25.03125 0.71875 " clip-rule="nonzero"/></clipPath><clipPath id="2e4f27a54b"><rect x="0" width="50" y="0" height="64"/></clipPath><clipPath id="033597e0e7"><path d="M 756 1259 L 1259 1259 L 1259 1407 L 756 1407 Z M 756 1259 " clip-rule="nonzero"/></clipPath><clipPath id="7f34608fd7"><path d="M 756.46875 1353.164062 L 1247.859375 1259.433594 L 1258.117188 1313.214844 L 766.726562 1406.945312 Z M 756.46875 1353.164062 " clip-rule="nonzero"/></clipPath><clipPath id="783a4e00a3"><path d="M 6 19 L 500 19 L 500 130 L 6 130 Z M 6 19 " clip-rule="nonzero"/></clipPath><clipPath id="ac42ba7198"><path d="M 0.46875 94.164062 L 491.859375 0.433594 L 502.117188 54.214844 L 10.726562 147.945312 Z M 0.46875 94.164062 " clip-rule="nonzero"/></clipPath><clipPath id="0b8d7c7074"><path d="M 492.136719 0.382812 L 0.746094 94.109375 L 11.003906 147.890625 L 502.394531 54.164062 Z M 492.136719 0.382812 " clip-rule="nonzero"/></clipPath><clipPath id="f7128f5e04"><path d="M 492.136719 0.382812 L 0.746094 94.109375 L 11.003906 147.890625 L 502.394531 54.164062 Z M 492.136719 0.382812 " clip-rule="nonzero"/></clipPath><clipPath id="bb85498bfd"><rect x="0" width="503" y="0" height="148"/></clipPath><clipPath id="f4261a0c45"><path d="M 797 425.011719 L 1380.121094 425.011719 L 1380.121094 1238.011719 L 797 1238.011719 Z M 797 425.011719 " clip-rule="nonzero"/></clipPath><clipPath id="b016ca377d"><path d="M 773 1143 L 806 1143 L 806 1240 L 773 1240 Z M 773 1143 " clip-rule="nonzero"/></clipPath><clipPath id="f31127817f"><path d="M 795.371094 1143.828125 L 805.261719 1146.144531 L 783.351562 1239.707031 L 773.460938 1237.390625 Z M 795.371094 1143.828125 " clip-rule="nonzero"/></clipPath><clipPath id="613432de3d"><path d="M 0.28125 0.601562 L 32.441406 0.601562 L 32.441406 96.839844 L 0.28125 96.839844 Z M 0.28125 0.601562 " clip-rule="nonzero"/></clipPath><clipPath id="14c7d4a3b8"><path d="M 22.371094 0.828125 L 32.261719 3.144531 L 10.351562 96.707031 L 0.460938 94.390625 Z M 22.371094 0.828125 " clip-rule="nonzero"/></clipPath><clipPath id="dbeaad7542"><rect x="0" width="33" y="0" height="97"/></clipPath><clipPath id="a179690aab"><path d="M 785 1171 L 803 1171 L 803 1230 L 785 1230 Z M 785 1171 " clip-rule="nonzero"/></clipPath><clipPath id="70618dc043"><path d="M 792.265625 1171.800781 L 802.347656 1173.035156 L 795.5 1229.050781 L 785.417969 1227.820312 Z M 792.265625 1171.800781 " clip-rule="nonzero"/></clipPath><clipPath id="a54af8f64c"><path d="M 0.28125 0.679688 L 17.558594 0.679688 L 17.558594 58.28125 L 0.28125 58.28125 Z M 0.28125 0.679688 " clip-rule="nonzero"/></clipPath><clipPath id="912052108f"><path d="M 7.265625 0.800781 L 17.347656 2.035156 L 10.5 58.050781 L 0.417969 56.820312 Z M 7.265625 0.800781 " clip-rule="nonzero"/></clipPath><clipPath id="f1d3290093"><rect x="0" width="18" y="0" height="59"/></clipPath><clipPath id="1a9f18a644"><path d="M 764 1222 L 800 1222 L 800 1267 L 764 1267 Z M 764 1222 " clip-rule="nonzero"/></clipPath><clipPath id="2125a8c9f7"><path d="M 731.691406 1248.910156 L 789.253906 1212.242188 L 825.921875 1269.804688 L 768.359375 1306.472656 Z M 731.691406 1248.910156 " clip-rule="nonzero"/></clipPath><clipPath id="c5abdbb71c"><path d="M 731.691406 1248.910156 L 789.253906 1212.242188 L 825.921875 1269.804688 L 768.359375 1306.472656 Z M 731.691406 1248.910156 " clip-rule="nonzero"/></clipPath><clipPath id="40d1b77968"><path d="M 760 1272 L 788 1272 L 788 1306 L 760 1306 Z M 760 1272 " clip-rule="nonzero"/></clipPath><clipPath id="ff498a0fbe"><path d="M 731.691406 1248.910156 L 789.253906 1212.242188 L 825.921875 1269.804688 L 768.359375 1306.472656 Z M 731.691406 1248.910156 " clip-rule="nonzero"/></clipPath><clipPath id="145bdb93d8"><path d="M 731.691406 1248.910156 L 789.253906 1212.242188 L 825.921875 1269.804688 L 768.359375 1306.472656 Z M 731.691406 1248.910156 " clip-rule="nonzero"/></clipPath><clipPath id="50804479ae"><path d="M 766 1263 L 788 1263 L 788 1275 L 766 1275 Z M 766 1263 " clip-rule="nonzero"/></clipPath><clipPath id="1dbb42beb7"><path d="M 731.691406 1248.910156 L 789.253906 1212.242188 L 825.921875 1269.804688 L 768.359375 1306.472656 Z M 731.691406 1248.910156 " clip-rule="nonzero"/></clipPath><clipPath id="28349a9de3"><path d="M 731.691406 1248.910156 L 789.253906 1212.242188 L 825.921875 1269.804688 L 768.359375 1306.472656 Z M 731.691406 1248.910156 " clip-rule="nonzero"/></clipPath><clipPath id="8a2e4482bd"><path d="M 795 1101 L 819 1101 L 819 1148 L 795 1148 Z M 795 1101 " clip-rule="nonzero"/></clipPath><clipPath id="f435ff5d9c"><path d="M 810.621094 1101.285156 L 818.160156 1103.867188 L 803.328125 1147.191406 L 795.785156 1144.605469 Z M 810.621094 1101.285156 " clip-rule="nonzero"/></clipPath><clipPath id="b947120878"><path d="M 0.601562 0.121094 L 23.398438 0.121094 L 23.398438 46.199219 L 0.601562 46.199219 Z M 0.601562 0.121094 " clip-rule="nonzero"/></clipPath><clipPath id="7a8b0b8720"><path d="M 15.621094 0.285156 L 23.160156 2.867188 L 8.328125 46.191406 L 0.785156 43.605469 Z M 15.621094 0.285156 " clip-rule="nonzero"/></clipPath><clipPath id="4ef168619b"><rect x="0" width="24" y="0" height="47"/></clipPath><clipPath id="5482ab8bb2"><path d="M 827 749 L 902 749 L 902 990 L 827 990 Z M 827 749 " clip-rule="nonzero"/></clipPath><clipPath id="2f99e3436f"><path d="M 849.0625 1005.292969 L 731.386719 922.300781 L 853.28125 749.457031 L 970.960938 832.453125 Z M 849.0625 1005.292969 " clip-rule="nonzero"/></clipPath><clipPath id="8f89573657"><path d="M 849.0625 1005.292969 L 731.386719 922.300781 L 853.28125 749.457031 L 970.960938 832.453125 Z M 849.0625 1005.292969 " clip-rule="nonzero"/></clipPath></defs><g clip-path="url(#d097aa70d5)"><g clip-path="url(#dd0f3eee6e)"><g clip-path="url(#52dfa363a0)"><path fill="#4811b8" d="M 706.167969 719.632812 C 654.734375 634.332031 561.25 585.335938 472.429688 540.433594 C 472.429688 540.433594 526.804688 581.441406 551.40625 605.097656 C 546.910156 602.054688 542.277344 599.105469 537.777344 596.0625 C 485.289062 562.101562 430.277344 531.585938 381.679688 492.128906 C 262.769531 396.085938 188.351562 247.285156 182.632812 94.613281 C 153.839844 175.789062 150.984375 266.03125 174.453125 348.875 C 197.921875 431.722656 247.757812 506.949219 314.976562 560.957031 C 363.832031 600.230469 420.585938 627.851562 475.0625 658.84375 C 529.535156 689.839844 583.132812 725.355469 620.300781 775.757812 C 657.46875 826.160156 675.804688 894.230469 653.6875 952.832031 C 661.878906 893.011719 636.8125 820.953125 596.949219 775.679688 C 557.085938 730.40625 498.601562 706.9375 445.433594 678.332031 C 392.265625 649.726562 342.3125 626.335938 293.820312 590.316406 C 211.933594 529.375 137.867188 443.777344 125.292969 341.691406 C 98.222656 471.257812 162.457031 614.914062 277.066406 681.164062 C 369.671875 734.6875 486.960938 758.195312 564.90625 836.359375 C 605.628906 877.21875 618.914062 925.289062 610.398438 982.316406 C 601.882812 1039.339844 566.902344 1091.773438 517.535156 1121.484375 C 603.976562 1108.421875 682.125 1050.082031 719.335938 971.011719 C 756.433594 891.925781 751.292969 794.40625 706.167969 719.632812 Z M 706.167969 719.632812 " fill-opacity="1" fill-rule="nonzero"/></g></g></g><g clip-path="url(#300c80ef76)"><g clip-path="url(#2f59038905)"><g clip-path="url(#4c42fa77f8)"><path fill="#4811b8" d="M 394.695312 765.9375 C 158.28125 693.421875 140.734375 599.839844 140.734375 599.839844 C 130.363281 751.949219 218.984375 773.792969 416.960938 836.382812 C 472.46875 853.875 509.0625 876.710938 532.960938 900.476562 C 502.914062 875.328125 457.355469 853.59375 393.1875 842.839844 C 159.160156 804.011719 153.691406 746.78125 153.691406 746.78125 C 160.679688 873.109375 249.429688 867.28125 418.738281 898.570312 C 588.050781 929.863281 566.40625 1040.855469 566.40625 1040.855469 C 570.699219 1030.984375 673.496094 851.328125 394.695312 765.9375 Z M 394.695312 765.9375 " fill-opacity="1" fill-rule="nonzero"/></g></g></g><g clip-path="url(#13c970b8ff)"><g clip-path="url(#32fc7b57d8)"><g clip-path="url(#2b7f85950d)"><path fill="#4811b8" d="M 991.46875 634.707031 C 959.660156 611.199219 897.382812 610.796875 888.742188 594.515625 C 879.992188 578.21875 917.425781 576.578125 944.34375 612.136719 C 944.34375 612.136719 950.839844 571.75 920.214844 541.261719 C 889.589844 510.773438 745.488281 496.859375 747.867188 447.796875 C 747.867188 447.796875 741.980469 510.167969 810.039062 539.019531 C 810.039062 539.019531 732.011719 534.695312 657.605469 595.839844 C 657.605469 595.839844 667.871094 605.214844 683.035156 621.34375 C 728.609375 671.917969 816.269531 793.667969 776.625 949.710938 C 713.164062 1199.285156 339.707031 1225.976562 339.707031 1225.976562 C 843.871094 1206.148438 858.453125 926.867188 826.21875 790.109375 C 825.761719 788.09375 825.195312 786.0625 824.625 784.027344 C 837.996094 736.027344 856.859375 678.476562 877.347656 649.6875 L 867.046875 640.535156 L 878.929688 646.421875 C 878.929688 646.421875 1002.128906 633.664062 1004.515625 675.4375 C 1004.535156 675.328125 1014.371094 651.578125 991.46875 634.707031 Z M 991.46875 634.707031 " fill-opacity="1" fill-rule="nonzero"/></g></g></g><g clip-path="url(#d2ddcf93ad)"><g clip-path="url(#61e0175d77)"><g clip-path="url(#2173ab12c6)"><path fill="#4811b8" d="M 819.488281 1361.617188 C 756.292969 1382.199219 684.136719 1364.183594 638.402344 1310.417969 C 577.933594 1239.335938 586.539062 1132.6875 657.621094 1072.21875 C 711.386719 1026.480469 785.496094 1020.269531 844.570312 1050.710938 C 798.074219 1040.402344 747.464844 1051.25 708.394531 1084.488281 C 642.160156 1140.832031 634.144531 1240.214844 690.484375 1306.445312 C 723.722656 1345.519531 771.933594 1364.335938 819.488281 1361.617188 Z M 819.488281 1361.617188 " fill-opacity="1" fill-rule="nonzero"/></g></g></g><g clip-path="url(#8f41d31797)"><g clip-path="url(#9db100b055)"><g transform="matrix(1, 0, 0, 1, 596, 1144)"><g clip-path="url(#2e4f27a54b)"><g clip-path="url(#813f4d33bb)"><g clip-path="url(#136e23c027)"><path fill="#4811b8" d="M 0.457031 0.71875 L 49.605469 0.71875 L 49.605469 63.886719 L 0.457031 63.886719 Z M 0.457031 0.71875 " fill-opacity="1" fill-rule="nonzero"/></g></g></g></g></g></g><g clip-path="url(#033597e0e7)"><g clip-path="url(#7f34608fd7)"><g transform="matrix(1, 0, 0, 1, 756, 1259)"><g clip-path="url(#bb85498bfd)"><g clip-path="url(#783a4e00a3)"><g clip-path="url(#ac42ba7198)"><g clip-path="url(#0b8d7c7074)"><g clip-path="url(#f7128f5e04)"><path fill="#7447cf" d="M 375.035156 22.675781 L 375.269531 22.632812 C 398.28125 19.085938 418.1875 18.398438 434.980469 20.574219 C 460.773438 24.519531 482.160156 30.488281 499.136719 38.472656 C 454.769531 24.53125 417.226562 21.128906 386.507812 28.265625 C 377.296875 30.835938 363.488281 35.730469 345.078125 42.953125 L 264.777344 81.578125 C 254.886719 86.164062 240.792969 91.875 222.488281 98.714844 C 187.835938 110.742188 157.105469 119.4375 130.296875 124.800781 C 109.34375 128.660156 90.066406 130.34375 72.460938 129.855469 C 56.390625 129.84375 34.300781 127.355469 6.195312 122.394531 C 51.050781 125.378906 94.058594 121.421875 135.214844 110.519531 C 152.152344 105.675781 173.734375 98.386719 199.957031 88.652344 L 225.332031 78.589844 C 247.046875 68.550781 264.746094 60.695312 278.421875 55.023438 C 285.882812 51.882812 296.644531 47.75 310.707031 42.625 C 321.132812 38.738281 335.054688 33.992188 352.464844 28.382812 C 354.28125 27.648438 361.804688 25.746094 375.035156 22.675781 " fill-opacity="1" fill-rule="nonzero"/></g></g></g></g></g></g></g></g><g clip-path="url(#f4261a0c45)"><path fill="#7447cf" d="M 800.480469 1238.015625 C 800.480469 1238.015625 783.746094 1140.4375 828.367188 1049.808594 C 872.992188 959.179688 998.453125 796.089844 1126.707031 698.488281 C 1254.964844 600.914062 1380.425781 425.242188 1380.425781 425.242188 C 1380.425781 425.242188 1346.976562 662.25 1253.554688 740.292969 C 1160.15625 818.363281 1114.148438 830.898438 1114.148438 830.898438 C 1114.148438 830.898438 1162.949219 832.285156 1264.703125 755.621094 C 1264.703125 755.621094 1213.136719 939.648438 1017.957031 956.359375 C 1017.957031 956.359375 1073.011719 962.640625 1119.738281 950.800781 C 1119.738281 950.800781 1050.738281 1026.078125 962.902344 1027.460938 C 962.902344 1027.460938 996.351562 1033.046875 1013.089844 1053.246094 C 1013.089844 1053.246094 941.988281 1026.050781 878.554688 1041.402344 C 878.554688 1041.402344 1006.117188 852.503906 1105.101562 782.789062 C 1204.085938 713.074219 1248.683594 648.949219 1248.683594 648.949219 C 1248.683594 648.949219 1155.285156 741.652344 1096.722656 773.71875 C 1038.15625 805.855469 781.667969 1037.96875 800.480469 1238.015625 " fill-opacity="1" fill-rule="evenodd"/></g><g clip-path="url(#b016ca377d)"><g clip-path="url(#f31127817f)"><g transform="matrix(1, 0, 0, 1, 773, 1143)"><g clip-path="url(#dbeaad7542)"><g clip-path="url(#613432de3d)"><g clip-path="url(#14c7d4a3b8)"><path fill="#7447cf" d="M 22.371094 0.828125 L 32.261719 3.144531 L 10.355469 96.695312 L 0.464844 94.378906 Z M 22.371094 0.828125 " fill-opacity="1" fill-rule="nonzero"/></g></g></g></g></g></g><g clip-path="url(#a179690aab)"><g clip-path="url(#70618dc043)"><g transform="matrix(1, 0, 0, 1, 785, 1171)"><g clip-path="url(#f1d3290093)"><g clip-path="url(#a54af8f64c)"><g clip-path="url(#912052108f)"><path fill="#7447cf" d="M 7.265625 0.800781 L 17.347656 2.035156 L 10.5 58.050781 L 0.417969 56.816406 Z M 7.265625 0.800781 " fill-opacity="1" fill-rule="nonzero"/></g></g></g></g></g></g><g clip-path="url(#1a9f18a644)"><g clip-path="url(#2125a8c9f7)"><g clip-path="url(#c5abdbb71c)"><path fill="#7447cf" d="M 799.074219 1227.953125 L 773.992188 1222.394531 C 773.859375 1222.363281 773.722656 1222.359375 773.589844 1222.382812 C 773.453125 1222.410156 773.328125 1222.457031 773.214844 1222.53125 C 773.097656 1222.605469 773 1222.699219 772.921875 1222.808594 C 772.84375 1222.921875 772.789062 1223.042969 772.757812 1223.175781 L 764.613281 1259.886719 C 764.582031 1260.019531 764.578125 1260.15625 764.601562 1260.289062 C 764.628906 1260.425781 764.675781 1260.550781 764.75 1260.664062 C 764.824219 1260.78125 764.917969 1260.878906 765.027344 1260.957031 C 765.140625 1261.035156 765.261719 1261.089844 765.394531 1261.121094 L 790.515625 1266.734375 C 790.789062 1266.792969 791.046875 1266.75 791.289062 1266.597656 C 791.535156 1266.445312 791.691406 1266.226562 791.753906 1265.941406 L 799.859375 1229.1875 C 799.921875 1228.90625 799.875 1228.644531 799.71875 1228.40625 C 799.566406 1228.167969 799.351562 1228.015625 799.074219 1227.953125 Z M 799.074219 1227.953125 " fill-opacity="1" fill-rule="nonzero"/></g></g></g><g clip-path="url(#40d1b77968)"><g clip-path="url(#ff498a0fbe)"><g clip-path="url(#145bdb93d8)"><path fill="#7447cf" d="M 760.695312 1279.4375 C 760.445312 1279.722656 760.375 1280.046875 760.480469 1280.410156 L 767.726562 1305.285156 L 770.625 1292.28125 C 770.347656 1292.140625 770.085938 1291.972656 769.847656 1291.777344 C 769.605469 1291.582031 769.386719 1291.359375 769.195312 1291.117188 C 769.003906 1290.871094 768.839844 1290.609375 768.703125 1290.328125 C 768.570312 1290.046875 768.464844 1289.757812 768.394531 1289.453125 C 768.324219 1289.152344 768.289062 1288.84375 768.285156 1288.53125 C 768.28125 1288.222656 768.3125 1287.914062 768.375 1287.609375 C 768.4375 1287.304688 768.535156 1287.011719 768.664062 1286.726562 C 768.792969 1286.445312 768.949219 1286.179688 769.136719 1285.929688 C 769.324219 1285.679688 769.535156 1285.457031 769.773438 1285.253906 C 770.011719 1285.050781 770.265625 1284.878906 770.539062 1284.730469 C 770.816406 1284.585938 771.101562 1284.472656 771.402344 1284.390625 C 771.703125 1284.304688 772.007812 1284.257812 772.320312 1284.242188 C 772.628906 1284.226562 772.9375 1284.242188 773.246094 1284.296875 C 773.550781 1284.347656 773.847656 1284.433594 774.136719 1284.550781 C 774.425781 1284.667969 774.695312 1284.816406 774.953125 1284.992188 C 775.207031 1285.167969 775.441406 1285.371094 775.652344 1285.601562 C 775.863281 1285.828125 776.046875 1286.078125 776.203125 1286.347656 C 776.363281 1286.617188 776.488281 1286.898438 776.582031 1287.195312 C 776.675781 1287.492188 776.738281 1287.792969 776.765625 1288.105469 C 776.792969 1288.414062 776.785156 1288.722656 776.746094 1289.03125 C 776.707031 1289.339844 776.632812 1289.640625 776.527344 1289.933594 C 776.421875 1290.226562 776.285156 1290.503906 776.117188 1290.765625 C 775.953125 1291.027344 775.757812 1291.269531 775.539062 1291.488281 C 775.320312 1291.710938 775.078125 1291.902344 774.816406 1292.070312 C 774.15625 1292.496094 773.4375 1292.714844 772.65625 1292.730469 L 769.769531 1305.753906 L 786.851562 1286.269531 C 787.097656 1285.988281 787.171875 1285.664062 787.066406 1285.296875 L 784.503906 1276.4375 L 766.757812 1272.476562 Z M 760.695312 1279.4375 " fill-opacity="1" fill-rule="nonzero"/></g></g></g><g clip-path="url(#50804479ae)"><g clip-path="url(#1dbb42beb7)"><g clip-path="url(#28349a9de3)"><path fill="#7447cf" d="M 766.304688 1269.203125 C 766.277344 1269.335938 766.273438 1269.46875 766.296875 1269.605469 C 766.324219 1269.742188 766.371094 1269.867188 766.445312 1269.980469 C 766.519531 1270.097656 766.609375 1270.195312 766.722656 1270.273438 C 766.835938 1270.351562 766.957031 1270.40625 767.089844 1270.433594 L 785.019531 1274.410156 C 785.15625 1274.441406 785.289062 1274.441406 785.421875 1274.417969 C 785.558594 1274.394531 785.683594 1274.347656 785.800781 1274.273438 C 785.914062 1274.199219 786.011719 1274.105469 786.089844 1273.996094 C 786.167969 1273.882812 786.222656 1273.757812 786.253906 1273.625 L 787.46875 1268.144531 L 767.523438 1263.722656 Z M 766.304688 1269.203125 " fill-opacity="1" fill-rule="nonzero"/></g></g></g><g clip-path="url(#8a2e4482bd)"><g clip-path="url(#f435ff5d9c)"><g transform="matrix(1, 0, 0, 1, 795, 1101)"><g clip-path="url(#4ef168619b)"><g clip-path="url(#b947120878)"><g clip-path="url(#7a8b0b8720)"><path fill="#7447cf" d="M 15.621094 0.285156 L 23.160156 2.867188 L 8.332031 46.175781 L 0.792969 43.59375 Z M 15.621094 0.285156 " fill-opacity="1" fill-rule="nonzero"/></g></g></g></g></g></g><g clip-path="url(#5482ab8bb2)"><g clip-path="url(#2f99e3436f)"><g clip-path="url(#8f89573657)"><path fill="#7447cf" d="M 827.015625 989.742188 C 880.125 905.171875 875.007812 827.730469 853.859375 749.753906 C 924.433594 809.265625 917.96875 907.121094 827.015625 989.742188 Z M 827.015625 989.742188 " fill-opacity="1" fill-rule="nonzero"/></g></g></g></svg>